<?xml version="1.0" encoding="utf-8"?>
<!-- Generator: Adobe Illustrator 26.3.1, SVG Export Plug-In . SVG Version: 6.00 Build 0)  -->
<svg version="1.0" id="Layer_2_00000013191304426102198100000010443834633291634069_"
	 xmlns="http://www.w3.org/2000/svg" xmlns:xlink="http://www.w3.org/1999/xlink" x="0px" y="0px" viewBox="0 0 64 64"
	 style="enable-background:new 0 0 64 64;" xml:space="preserve">
<path d="M52.8,5.2c-0.3,0-0.7,0-1,0c0.4,0,0.8,0,1.1,0H52.8z"/>
<path d="M16.7,23.6l8.4,9.7c0.6,0.7,1.3,1.2,2.1,1.6c1.9-2.1,3.7-4.1,5.2-5.7L8.6,1.8l0,0C8.3,1.6,8,1.5,7.8,1.5
	c-0.5-0.1-1.1,0-1.5,0.4L6,2.2C5.5,2.8,5.7,4,6.4,6c0.8,2.1,1.8,4.2,2.9,6.2C11.4,16.2,13.9,20,16.7,23.6z"/>
<path d="M52.8,53.8c-4.8-5.1-13-13.6-16.9-18.3c-0.8,1-1.6,2-2.5,3.1c1.3,1.4,2.3,2.6,4.5,5.3c4.4,5.2,9.3,11.4,11.9,14.7l2,2.6
	c0.6,0.7,1.3,1.1,2.2,1.3c0.8,0.1,1.6-0.1,2.2-0.7c0.6-0.5,1-1.2,1-2c0-0.9-0.4-1.8-1-2.4C56,57.1,54.6,55.7,52.8,53.8z"/>
<path d="M57.8,8.5c-0.3-0.8-0.8-1.4-1.4-1.9l0,0l0,0c-0.6-0.5-1.3-0.9-2.1-1.1c-0.4-0.1-0.9-0.1-1.3,0c-0.4,0-0.8,0-1.1,0
	c-1.1,0.2-2.2,0.5-3.2,1c-1.1,0.5-2.2,1.2-3.2,1.9c-1,0.8-2,1.6-2.9,2.5c-0.8,0.9-1.6,1.8-2.3,2.8c-1.5,2.3-2.2,5.1-1.8,7.9
	c0.2,1.2,0.1,2.4-0.3,3.5c-1.5,1.9-3,3.8-4.7,5.5l-4.3,4.9C24.4,40.7,18.7,46.7,14.7,51l-5.4,5.7c-0.8,0.8-1.4,1.9-1.5,3
	c-0.1,0.8,0.2,1.6,0.8,2.2c0.2,0.1,0.4,0.2,0.6,0.3l0,0c0.3,0,0.6,0,0.8,0h0.7c1.2-0.3,2.2-0.9,2.9-1.9l4.9-6.3
	c3.7-4.7,9-11.4,13.5-17c0.9-1.1,1.8-2.2,2.6-3.2c3-3.5,5.3-6.3,5.9-6.9c1.1-0.6,2.3-0.9,3.5-0.9c2.8,0,5.6-1,7.7-2.8
	c0.9-0.8,1.7-1.7,2.4-2.7c0.8-0.9,1.6-1.8,2.3-2.8c0.6-1.1,1.1-2.3,1.4-3.5c0.3-1.1,0.5-2.3,0.5-3.5C58.2,10,58.1,9.2,57.8,8.5z"/>
<path d="M52.8,5.2c0.4-0.1,0.9-0.1,1.3,0C53.7,5.1,53.3,5.1,52.8,5.2z"/>
<path d="M10.2,62.5c-0.3,0-0.6,0-0.8,0C9.6,62.6,9.9,62.6,10.2,62.5z"/>
<path d="M9.2,62.3C9,62.3,8.8,62.2,8.6,62C8.8,62.2,9,62.3,9.2,62.3z"/>
</svg>
