<?xml version="1.0" encoding="utf-8"?>
<!-- Generator: Adobe Illustrator 26.3.1, SVG Export Plug-In . SVG Version: 6.00 Build 0)  -->
<svg version="1.0" id="Layer_2_00000013191304426102198100000010443834633291634069_"
	 xmlns="http://www.w3.org/2000/svg" xmlns:xlink="http://www.w3.org/1999/xlink" x="0px" y="0px" viewBox="0 0 128 128"
	 style="enable-background:new 0 0 128 128;" xml:space="preserve">
<style type="text/css">
	.st0{fill:#AD1700;}
</style>
<path class="st0" d="M33.2,47.1l16.9,19.5c1.2,1.3,2.6,2.4,4.2,3.1c3.9-4.2,7.5-8.1,10.4-11.5L16.9,3.3l0,0c-0.5-0.3-1-0.5-1.6-0.6
	c-1.1-0.2-2.2,0.1-3,0.8l-0.6,0.7c-0.8,1-0.6,3.5,0.9,7.5c1.7,4.3,3.6,8.5,5.8,12.5C22.7,32.3,27.6,39.9,33.2,47.1z"/>
<path class="st0" d="M105.9,107.8c-9.6-10.2-26-27.3-34-36.7c-1.5,1.9-3.3,4-5,6.2c2.6,2.9,4.6,5.2,9.1,10.6
	c8.8,10.5,18.6,22.9,23.9,29.5l4.1,5.2c1.1,1.3,2.7,2.3,4.4,2.6c1.6,0.3,3.2-0.2,4.4-1.3c1.2-1,2-2.4,2.1-4c0-1.8-0.8-3.5-2.1-4.8
	C112.1,114.4,109.5,111.6,105.9,107.8z"/>
<path class="st0" d="M115.8,16.8c-0.6-1.5-1.5-2.8-2.8-3.9l0,0l0,0c-1.2-1.1-2.7-1.8-4.2-2.2c-0.9-0.1-1.8-0.1-2.6,0
	c-0.8-0.1-1.5-0.1-2.3,0c-2.3,0.3-4.4,1-6.5,2c-2.3,1.1-4.4,2.3-6.5,3.8c-2,1.6-4,3.3-5.8,5.1c-1.7,1.7-3.2,3.6-4.6,5.6
	c-3,4.7-4.4,10.3-3.7,15.9c0.3,2.3,0.1,4.7-0.6,7c-2.9,3.9-6.1,7.6-9.4,11.1L58.2,71c-9.5,10.4-20.9,22.6-28.9,31.2l-10.9,11.5
	c-1.7,1.6-2.8,3.7-3.1,6.1c-0.2,1.6,0.4,3.3,1.5,4.5c0.3,0.3,0.7,0.4,1.1,0.6l0,0c0.6,0.1,1.1,0.1,1.7,0h1.5
	c2.3-0.5,4.4-1.9,5.8-3.8l9.9-12.6c7.4-9.5,18.1-22.9,27.1-34.1c1.9-2.2,3.6-4.4,5.2-6.4c6.1-7,10.7-12.7,11.8-13.9
	c2.1-1.2,4.5-1.8,7-1.7c5.7,0,11.2-2,15.5-5.7c1.8-1.6,3.4-3.5,4.9-5.4c1.6-1.8,3.2-3.7,4.5-5.7c1.2-2.2,2.2-4.5,2.9-7
	c0.7-2.3,1-4.6,1-7C116.7,19.8,116.4,18.2,115.8,16.8z"/>
<path class="st0" d="M84.8,37.2c0.4-0.1,0.9-0.1,1.3,0C85.7,37.1,85.3,37.1,84.8,37.2z"/>
<path class="st0" d="M42.2,94.5c-0.3,0-0.6,0-0.8,0C41.6,94.6,41.9,94.6,42.2,94.5z"/>
<path class="st0" d="M41.2,94.3c-0.2-0.1-0.4-0.2-0.6-0.3C40.8,94.2,41,94.3,41.2,94.3z"/>
</svg>
