<?xml version="1.0" encoding="utf-8"?>
<!-- Generator: Adobe Illustrator 26.3.1, SVG Export Plug-In . SVG Version: 6.00 Build 0)  -->
<svg version="1.0" id="Layer_2_00000008116081614666962330000012464639627908558751_"
	 xmlns="http://www.w3.org/2000/svg" xmlns:xlink="http://www.w3.org/1999/xlink" x="0px" y="0px" viewBox="0 0 64 64"
	 style="enable-background:new 0 0 64 64;" xml:space="preserve">
<style type="text/css">
	.st0{fill:#AD1700;}
</style>
<path class="st0" d="M55,26.9h-1.1c-2.2,0.1-4-1.7-4.1-3.9c0-1.2,0.4-2.3,1.3-3.1l0,0l0.8-0.8c1.5-1.6,1.5-4.1,0-5.6l-1.6-1.6
	c-1.5-1.6-4-1.6-5.6,0l0,0l-0.8,0.8c-1.6,1.5-4.1,1.5-5.6-0.1c-0.7-0.7-1.1-1.7-1.1-2.8v-1c0-2.2-1.8-4-4-4h-2.3c-2.2,0-4,1.7-4,3.9
	l0,0V10c0.1,2.2-1.7,4-3.9,4.1c-1.2,0-2.3-0.4-3.1-1.3L19.1,12c-1.6-1.5-4.1-1.5-5.6,0l-1.6,1.6c-1.6,1.5-1.6,4,0,5.6l0,0l0.8,0.8
	c1.6,1.5,1.8,4,0.3,5.6c-0.9,0.9-2,1.4-3.2,1.4h-1c-2.1,0-3.9,1.6-4,3.7V33c0,2.2,1.7,4,3.9,4l0,0h1.1c2.2-0.1,4,1.7,4.1,3.9
	c0,1.2-0.4,2.3-1.3,3.1l-0.8,0.8c-1.5,1.6-1.5,4.1,0,5.6l1.6,1.6c1.5,1.6,4,1.6,5.6,0l0,0l0.8-0.8c1.5-1.6,4-1.8,5.6-0.3
	c0.9,0.8,1.4,1.9,1.3,3.1v1.1c0,2.2,1.8,4,4,4H33c2.2,0,4-1.7,4-3.9l0,0v-1.1c0-2.2,1.8-4.1,4-4.1c1.2,0,2.3,0.4,3.1,1.3l0.8,0.8
	c1.6,1.5,4.1,1.5,5.6,0l1.6-1.6c1.6-1.5,1.6-4,0-5.6l0,0L51.3,44c-1.5-1.6-1.5-4.1,0.1-5.6c0.7-0.7,1.7-1.1,2.8-1.1h1.1
	c2.2,0,4-1.8,4-4v-2.4c0-2.2-1.7-4-3.9-4C55.3,26.9,55.2,26.9,55,26.9z M33,42.4c-5.7,0.6-10.9-3.5-11.5-9.2c-0.1-0.8-0.1-1.6,0-2.4
	c0.7-4.8,4.5-8.6,9.3-9.3c5.7-0.6,10.9,3.5,11.5,9.2c0.1,0.8,0.1,1.6,0,2.4C41.6,37.9,37.8,41.7,33,42.4z"/>
</svg>
