<?xml version="1.0" encoding="utf-8"?>
<!-- Generator: Adobe Illustrator 26.3.1, SVG Export Plug-In . SVG Version: 6.00 Build 0)  -->
<svg version="1.0" id="Layer_2_00000008116081614666962330000012464639627908558751_"
	 xmlns="http://www.w3.org/2000/svg" xmlns:xlink="http://www.w3.org/1999/xlink" x="0px" y="0px" viewBox="0 0 128 128"
	 style="enable-background:new 0 0 128 128;" xml:space="preserve">
<style type="text/css">
	.st0{fill:#FFD215;}
</style>
<path class="st0" d="M113.4,53.1h-2.5c-4.7,0.1-8.7-3.6-8.8-8.3c-0.1-2.5,0.9-4.9,2.8-6.6l0,0l1.8-1.8c3.3-3.3,3.3-8.7,0-12.1
	l-3.5-3.5c-3.3-3.3-8.7-3.4-12-0.1c0,0,0,0-0.1,0.1l-1.8,1.7c-3.4,3.3-8.8,3.2-12.1-0.2c-1.5-1.6-2.4-3.7-2.4-5.9v-2.2
	c0-4.7-3.8-8.5-8.5-8.6h-4.8c-4.7,0-8.5,3.7-8.6,8.4c0,0,0,0,0,0.1v2.5c0.1,4.7-3.6,8.7-8.3,8.8c-2.5,0.1-4.9-0.9-6.6-2.8l-1.8-1.8
	c-3.3-3.3-8.7-3.3-12.1,0l-3.5,3.5c-3.3,3.3-3.4,8.7-0.1,12c0,0,0,0,0.1,0.1l1.7,1.8c3.5,3.2,3.8,8.6,0.6,12.1
	c-1.7,1.9-4.2,2.9-6.7,2.8H14c-4.5,0-8.3,3.5-8.6,8V66c0,4.7,3.7,8.5,8.4,8.6c0,0,0,0,0.1,0h2.5c4.7-0.1,8.7,3.6,8.8,8.3
	c0.1,2.5-0.9,4.9-2.8,6.6l-1.8,1.8c-3.3,3.3-3.3,8.7,0,12.1l3.5,3.5c3.3,3.3,8.7,3.4,12,0.1c0,0,0,0,0.1-0.1l1.8-1.7
	c3.2-3.5,8.6-3.8,12.1-0.6c1.9,1.7,2.9,4.2,2.8,6.7v2.5c0,4.7,3.8,8.5,8.5,8.6h4.9c4.7,0,8.5-3.7,8.6-8.4c0,0,0,0,0-0.1v-2.5
	c-0.1-4.7,3.6-8.7,8.3-8.8c2.5-0.1,4.9,0.9,6.6,2.8l1.8,1.8c3.3,3.3,8.7,3.3,12.1,0l3.5-3.5c3.3-3.3,3.4-8.7,0.1-12c0,0,0,0-0.1-0.1
	l-1.7-1.8c-3.3-3.4-3.2-8.8,0.2-12.1c1.6-1.5,3.7-2.4,5.9-2.4h2.5c4.7,0,8.5-3.8,8.6-8.5v-5.1c0.1-4.7-3.7-8.5-8.4-8.6
	C113.9,53,113.6,53,113.4,53.1z M66,86.2c-12.3,1.4-23.3-7.5-24.7-19.7c-0.2-1.7-0.2-3.4,0-5.1c1.5-10.3,9.7-18.4,20-19.9
	C73.6,40.2,84.7,49,86,61.3c0.2,1.7,0.2,3.4,0,5.1C84.5,76.7,76.3,84.7,66,86.2z"/>
</svg>
