<?xml version="1.0" encoding="utf-8"?>
<!-- Generator: Adobe Illustrator 26.3.1, SVG Export Plug-In . SVG Version: 6.00 Build 0)  -->
<svg version="1.0" id="Layer_2_00000052100850985529523380000003833893845030944392_"
	 xmlns="http://www.w3.org/2000/svg" xmlns:xlink="http://www.w3.org/1999/xlink" x="0px" y="0px" viewBox="0 0 128 128"
	 style="enable-background:new 0 0 128 128;" xml:space="preserve">
<path d="M123.4,85.1c-1.6-2.3-3.8-4.1-6.4-5.2C119.5,81,121.8,82.8,123.4,85.1z"/>
<path d="M87.4,74.1l-3.5,0.5l0,0L87.4,74.1z"/>
<path d="M92.2,73.9c4.8,0,9.6,0.7,14.2,2.1C101.8,74.6,97,73.9,92.2,73.9z"/>
<path d="M61,48.3c2.5-5.7,1.8-12.3-1.7-17.5c-1.4-1.9-3.1-3.6-5-5c-8.4-5.8-19.9-3.6-25.7,4.8c-2.1,3.1-3.2,6.8-3.2,10.5
	c0,2.5,0.5,4.9,1.5,7.1c0.9,2.2,2.2,4.2,3.9,5.9c7.2,7.2,18.9,7.2,26.1,0c1.7-1.7,3-3.7,3.9-5.8H61z"/>
<path d="M46.5,67.8h-4.8H37c-4.8,0.5-9.5,1.7-14,3.5L21,72C9.7,76.6,2.3,87.6,2.2,99.8v5.7h48.4V93c-0.1-8.9,5.2-16.9,13.4-20.3
	l-3.5-1.4C56,69.4,51.3,68.3,46.5,67.8z"/>
<path d="M83.8,74.6c-2,0.3-3.9,0.8-5.9,1.4C79.9,75.4,81.9,74.9,83.8,74.6z"/>
<path d="M102.6,64c0.8-0.6,1.6-1.2,2.3-1.9c1.5-1.3,2.7-2.8,3.5-4.5c0.4-0.9,0.7-1.9,0.9-2.9c0.3-1.2,0.4-2.4,0.3-3.5
	c0-1.1-0.1-2.1-0.3-3.2c-0.2-1-0.5-2-0.9-3c-0.8-1.9-1.9-3.5-3.3-5c-0.8-0.7-1.6-1.3-2.5-1.8c-2.6-1.7-5.6-2.7-8.8-2.7
	c-8.5,0.1-15.4,7.1-15.5,15.6c0.2,8.7,7.4,15.6,16,15.4C97.4,66.5,100.2,65.6,102.6,64z"/>
<path d="M116.9,79.9l-5.9-2.4c-1.5-0.6-3-1.2-4.6-1.6c-4.6-1.4-9.4-2.1-14.2-2.1c-1.6,0-3.2,0-4.8,0l-3.5,0.5
	c-2,0.3-3.9,0.8-5.9,1.4c-1.6,0.4-3.1,1-4.6,1.6l-5.9,2.4c-5.3,2.1-8.8,7.2-8.8,12.9V105h67.1V93c0-5.7-3.5-10.8-8.8-12.9V79.9z"/>
</svg>
