<?xml version="1.0" encoding="utf-8"?>
<!-- Generator: Adobe Illustrator 26.3.1, SVG Export Plug-In . SVG Version: 6.00 Build 0)  -->
<svg version="1.0" id="Layer_2_00000052100850985529523380000003833893845030944392_"
	 xmlns="http://www.w3.org/2000/svg" xmlns:xlink="http://www.w3.org/1999/xlink" x="0px" y="0px" viewBox="0 0 64 64"
	 style="enable-background:new 0 0 64 64;" xml:space="preserve">
<style type="text/css">
	.st0{fill:#FFD215;}
</style>
<path class="st0" d="M62.2,42.7c-0.8-1.2-1.9-2.1-3.3-2.6C60.3,40.6,61.4,41.6,62.2,42.7z"/>
<path class="st0" d="M43.9,37.1l-1.8,0.3l0,0L43.9,37.1z"/>
<path class="st0" d="M46.4,37c2.5,0,4.9,0.3,7.2,1C51.3,37.4,48.8,37,46.4,37z"/>
<path class="st0" d="M30.5,24c1.3-2.9,0.9-6.3-0.9-8.9c-0.7-1-1.6-1.8-2.6-2.5c-4.2-3-10.1-1.9-13,2.4c-1.1,1.6-1.6,3.4-1.6,5.3
	c0,1.3,0.3,2.5,0.8,3.6s1.1,2.1,2,3c3.7,3.7,9.6,3.7,13.3,0C29.2,26.1,29.9,25.1,30.5,24L30.5,24z"/>
<path class="st0" d="M23.1,33.9h-2.4h-2.5c-2.5,0.3-4.9,0.8-7.1,1.8l-1,0.4C4.3,38.4,0.6,44,0.6,50.2v2.9h24.6v-6.3
	c0-4.5,2.7-8.6,6.8-10.4l-1.8-0.7C27.9,34.8,25.5,34.2,23.1,33.9z"/>
<path class="st0" d="M42.1,37.4c-1,0.2-2,0.4-3,0.7C40.1,37.8,41.1,37.6,42.1,37.4z"/>
<path class="st0" d="M51.7,32c0.4-0.3,0.8-0.6,1.2-1c0.7-0.6,1.4-1.4,1.8-2.3c0.2-0.5,0.4-1,0.5-1.5c0.1-0.6,0.2-1.2,0.2-1.8
	c0-0.5,0-1.1-0.2-1.6c-0.1-0.5-0.3-1-0.5-1.5c-0.4-0.9-1-1.8-1.7-2.5c-0.4-0.3-0.8-0.7-1.3-0.9c-1.3-0.9-2.9-1.4-4.5-1.4
	c-4.3,0.1-7.8,3.6-7.9,7.9c0.1,4.4,3.8,7.9,8.2,7.8C49,33.3,50.4,32.8,51.7,32z"/>
<path class="st0" d="M59,40.1l-3-1.2c-0.8-0.3-1.5-0.6-2.3-0.8c-2.4-0.7-4.8-1.1-7.2-1c-0.8,0-1.6,0-2.5,0l-1.8,0.3
	c-1,0.2-2,0.4-3,0.7c-0.8,0.2-1.6,0.5-2.3,0.8l-3,1.2c-2.7,1.1-4.5,3.7-4.5,6.6V53h34.2v-6.1C63.4,43.9,61.7,41.3,59,40.1L59,40.1z"
	/>
</svg>
