<?xml version="1.0" encoding="utf-8"?>
<!-- Generator: Adobe Illustrator 26.3.1, SVG Export Plug-In . SVG Version: 6.00 Build 0)  -->
<svg version="1.0" id="Layer_2_00000145043721610244513150000004565582767890685084_"
	 xmlns="http://www.w3.org/2000/svg" xmlns:xlink="http://www.w3.org/1999/xlink" x="0px" y="0px" viewBox="0 0 128 128"
	 style="enable-background:new 0 0 128 128;" xml:space="preserve">
<circle cx="64" cy="23.4" r="18.3"/>
<path d="M62.3,64.5c-11.8-13-28-21.2-45.5-23.1c-1.3-0.1-2.4,0.8-2.5,2.1c0,0.1,0,0.3,0,0.4v52.6c0,1.3,0.9,2.3,2.2,2.3c0,0,0,0,0,0
	c17.6,1.8,34,10.1,45.9,23.2c0.9,1,2.4,1,3.4,0.1c0,0,0,0,0.1-0.1C77.6,109,94,100.7,111.6,98.9c1.3,0,2.2-1.1,2.2-2.3c0,0,0,0,0,0
	V43.9c0-1.3-1-2.4-2.3-2.4c-0.1,0-0.2,0-0.3,0c-17.5,1.9-33.7,10.1-45.5,23.1c-0.8,0.9-2.3,1-3.2,0.2C62.4,64.7,62.3,64.6,62.3,64.5
	z"/>
</svg>
