<?xml version="1.0" encoding="utf-8"?>
<!-- Generator: Adobe Illustrator 26.3.1, SVG Export Plug-In . SVG Version: 6.00 Build 0)  -->
<svg version="1.0" id="Layer_2_00000145043721610244513150000004565582767890685084_"
	 xmlns="http://www.w3.org/2000/svg" xmlns:xlink="http://www.w3.org/1999/xlink" x="0px" y="0px" viewBox="0 0 64 64"
	 style="enable-background:new 0 0 64 64;" xml:space="preserve">
<circle cx="32" cy="11.9" r="9.1"/>
<path d="M31.1,32.3c-5.9-6.5-13.9-10.5-22.6-11.5c-0.6-0.1-1.2,0.4-1.3,1.1c0,0.1,0,0.1,0,0.2v26.1c0,0.6,0.5,1.1,1.1,1.2
	c0,0,0,0,0,0c8.8,0.9,16.9,5,22.8,11.5c0.5,0.5,1.2,0.5,1.7,0c0,0,0,0,0,0c5.9-6.5,14-10.6,22.8-11.5c0.6,0,1.1-0.5,1.1-1.2
	c0,0,0,0,0,0V22c0-0.6-0.5-1.2-1.1-1.2c0,0-0.1,0-0.1,0c-8.7,0.9-16.7,5-22.6,11.5c-0.4,0.5-1.1,0.5-1.6,0.1
	C31.2,32.4,31.2,32.3,31.1,32.3z"/>
</svg>
